The Buried Life S01E03 WS DSR Xvid-Dodecahedron [Dodecahedron] 

--

Source by Dvsky, cropping fixed, logo removed, 2-pass compression + Direct stream copy.

  General

  Format : AVI
  Format/Info : Audio Video Interleave
  File size : 161 MiB
  Duration : 21mn 10s
  Overall bit rate : 1 062 Kbps

  Video

  Format : MPEG-4 Visual
  Format profile : Streaming Video@L1
  Format settings, BVOP : Yes
  Format settings, QPel : No
  Format settings, GMC : No warppoints
  Format settings, Matrix : Default
  Codec ID : XVID
  Codec ID/Hint : XviD
  Duration : 21mn 10s
  Bit rate : 925 Kbps
  Width : 624 pixels
  Height : 326 pixels
  Display aspect ratio : 1.914
  Frame rate : 29.970 fps
  Resolution : 24 bits
  Colorimetry : 4:2:0
  Scan type : Progressive
  Bits/(Pixel*Frame) : 0.152
  Stream size : 140 MiB (87%)
  Writing library : XviD 50

  Audio

  Format : MPEG Audio
  Format version : Version 1
  Format profile : Layer 3
  Codec ID : 55
  Codec ID/Hint : MP3
  Duration : 21mn 10s
  Bit rate mode : Variable
  Bit rate : 124 Kbps
  Channel(s) : 2 channels
  Sampling rate : 48.0 KHz
  Resolution : 16 bits
  Stream size : 18.8 MiB (12%)
  Alignment : Aligned on interleaves
  Interleave, duration : 24 ms (0.72 video frame)